<svg width="166" height="26" viewBox="0 0 166 26" fill="none" xmlns="http://www.w3.org/2000/svg">
<path d="M150.56 6.75981C150.44 6.45987 150.436 6.20493 150.549 5.99497C150.669 5.77752 150.927 5.66879 151.325 5.66879H154.103C154.29 5.66879 154.444 5.72878 154.564 5.84875C154.684 5.96123 154.774 6.1037 154.834 6.27616L158.017 15.3305L161.133 6.27616C161.215 6.03621 161.32 5.875 161.448 5.79252C161.575 5.71003 161.751 5.66879 161.976 5.66879H164.867C165.077 5.66879 165.242 5.69879 165.362 5.75877C165.482 5.81126 165.564 5.88625 165.609 5.98373C165.662 6.07371 165.68 6.17868 165.665 6.29866C165.65 6.41113 165.62 6.52361 165.575 6.63609C165.291 7.34094 164.979 8.11327 164.642 8.95309C164.304 9.78541 163.952 10.6552 163.585 11.5625C163.225 12.4623 162.857 13.3809 162.482 14.3182C162.107 15.248 161.74 16.1628 161.38 17.0626C161.028 17.9624 160.687 18.8285 160.357 19.6608C160.027 20.4856 159.723 21.243 159.446 21.9328C159.176 22.6302 158.939 23.2413 158.737 23.7662C158.534 24.2911 158.381 24.696 158.276 24.9809L158.31 24.9247C158.257 25.1271 158.163 25.2884 158.028 25.4083C157.893 25.5358 157.728 25.5995 157.533 25.5995H154.935C154.598 25.5995 154.365 25.5321 154.238 25.3971C154.118 25.2696 154.058 25.0784 154.058 24.8235C154.058 24.726 154.069 24.651 154.092 24.5985C154.122 24.546 154.144 24.5123 154.159 24.4973L155.925 19.9083L150.56 6.75981Z" fill="#FB6775"/>
<path d="M148.728 19.1322C148.728 19.2597 148.705 19.3834 148.66 19.5034C148.615 19.6158 148.54 19.7058 148.436 19.7733C148.353 19.8558 148.256 19.9083 148.143 19.9308C148.031 19.9533 147.933 19.9645 147.851 19.9645H145.635C145.477 19.9645 145.35 19.9458 145.252 19.9083C145.155 19.8633 145.076 19.8033 145.016 19.7283C144.956 19.6533 144.904 19.5634 144.859 19.4584C144.821 19.3459 144.78 19.2259 144.735 19.0984L144.589 18.5923C144.386 18.7948 144.154 18.9935 143.891 19.1884C143.637 19.3834 143.352 19.5596 143.037 19.7171C142.729 19.867 142.396 19.987 142.036 20.077C141.683 20.1745 141.316 20.2232 140.933 20.2232C140.251 20.2232 139.595 20.137 138.965 19.9645C138.343 19.7921 137.758 19.5484 137.21 19.2334C136.671 18.911 136.179 18.5286 135.737 18.0862C135.295 17.6363 134.912 17.1376 134.59 16.5902C134.275 16.0429 134.031 15.4542 133.859 14.8244C133.686 14.187 133.6 13.5234 133.6 12.8335C133.6 11.7913 133.791 10.824 134.174 9.93165C134.556 9.03185 135.077 8.25201 135.737 7.59215C136.397 6.9248 137.173 6.40366 138.065 6.02874C138.958 5.64632 139.914 5.45511 140.933 5.45511C141.398 5.45511 141.829 5.5076 142.227 5.61258C142.632 5.71755 142.999 5.86002 143.329 6.03998C143.667 6.21995 143.97 6.4374 144.24 6.69235C144.51 6.93979 144.746 7.20973 144.949 7.50217L145.275 6.47864C145.35 6.29118 145.41 6.14121 145.455 6.02874C145.507 5.90876 145.56 5.82253 145.612 5.77004C145.672 5.71005 145.744 5.67256 145.826 5.65757C145.909 5.63507 146.025 5.62382 146.175 5.62382H147.851C147.933 5.62382 148.031 5.63507 148.143 5.65757C148.256 5.68006 148.353 5.73255 148.436 5.81503C148.54 5.89751 148.615 5.99124 148.66 6.09622C148.705 6.2012 148.728 6.32117 148.728 6.45615V19.1322ZM137.649 12.8335C137.649 13.3284 137.724 13.7933 137.874 14.2282C138.031 14.6556 138.253 15.0268 138.538 15.3418C138.823 15.6567 139.164 15.9079 139.561 16.0953C139.966 16.2753 140.412 16.3653 140.9 16.3653C141.402 16.3653 141.867 16.2753 142.294 16.0953C142.729 15.9079 143.104 15.6567 143.419 15.3418C143.742 15.0268 143.993 14.6556 144.173 14.2282C144.353 13.7933 144.443 13.3284 144.443 12.8335C144.443 12.3536 144.353 11.8962 144.173 11.4613C143.993 11.0264 143.742 10.644 143.419 10.3141C143.104 9.98414 142.729 9.72545 142.294 9.53799C141.867 9.34303 141.402 9.24555 140.9 9.24555C140.412 9.24555 139.966 9.34303 139.561 9.53799C139.164 9.72545 138.823 9.98414 138.538 10.3141C138.253 10.644 138.031 11.0264 137.874 11.4613C137.724 11.8962 137.649 12.3536 137.649 12.8335Z" fill="#96BB0D"/>
<path d="M127.063 2.29442C127.063 2.05447 127.123 1.85202 127.243 1.68705C127.363 1.52209 127.57 1.43961 127.862 1.43961H130.618C130.693 1.43961 130.771 1.4621 130.854 1.50709C130.936 1.54458 131.011 1.60082 131.079 1.67581C131.154 1.75079 131.214 1.84077 131.259 1.94575C131.311 2.05073 131.338 2.16695 131.338 2.29442V19.0983C131.338 19.3833 131.255 19.6007 131.09 19.7507C130.933 19.8932 130.726 19.9644 130.471 19.9644H127.862C127.57 19.9644 127.363 19.8932 127.243 19.7507C127.123 19.6007 127.063 19.3833 127.063 19.0983V2.29442Z" fill="#FEB200"/>
<path d="M112.197 3.77914C112.197 3.62167 112.238 3.49795 112.321 3.40797C112.403 3.31049 112.527 3.26175 112.692 3.26175H119.879C120.396 3.26175 120.884 3.33298 121.341 3.47545C121.799 3.61792 122.219 3.81663 122.601 4.07158C122.983 4.31902 123.328 4.61896 123.636 4.97138C123.943 5.31631 124.202 5.69123 124.412 6.09614C124.629 6.50106 124.794 6.92847 124.907 7.37837C125.019 7.82078 125.075 8.27068 125.075 8.72808C125.075 9.40294 124.952 10.0628 124.704 10.7077C124.464 11.3525 124.119 11.9262 123.67 12.4285C123.22 12.9309 122.68 13.3396 122.05 13.6545C121.42 13.962 120.723 14.1194 119.958 14.1269H116.55V19.4808C116.55 19.8032 116.377 19.9644 116.032 19.9644H112.692C112.542 19.9644 112.422 19.9269 112.332 19.852C112.242 19.7695 112.197 19.6458 112.197 19.4808V3.77914ZM120.666 8.70559C120.666 8.48064 120.625 8.25568 120.543 8.03073C120.468 7.80578 120.355 7.60707 120.205 7.43461C120.055 7.25465 119.872 7.10843 119.654 6.99595C119.444 6.88348 119.204 6.82724 118.934 6.82724H116.55V10.5839H118.934C119.204 10.5839 119.448 10.5314 119.665 10.4265C119.883 10.314 120.063 10.1715 120.205 9.99906C120.355 9.8266 120.468 9.62789 120.543 9.40294C120.625 9.17799 120.666 8.94554 120.666 8.70559Z" fill="#FE9200"/>
<path d="M104.931 6.55741C104.931 6.31746 104.998 6.11126 105.133 5.93879C105.268 5.76633 105.478 5.6801 105.763 5.6801H108.339C108.429 5.6801 108.526 5.70259 108.631 5.74759C108.736 5.78508 108.834 5.84506 108.923 5.92755C109.013 6.00253 109.088 6.09251 109.148 6.19749C109.216 6.30247 109.25 6.42244 109.25 6.55741V19.0985C109.25 19.3834 109.171 19.6009 109.013 19.7508C108.856 19.8933 108.631 19.9646 108.339 19.9646H105.763C105.208 19.9646 104.931 19.6759 104.931 19.0985V6.55741ZM104.931 0.866127C104.931 0.551193 104.998 0.32999 105.133 0.202518C105.268 0.0675467 105.478 6.10352e-05 105.763 6.10352e-05H108.372C108.635 6.10352e-05 108.845 0.0675467 109.002 0.202518C109.167 0.32999 109.25 0.551193 109.25 0.866127V3.05941C109.25 3.14939 109.227 3.24687 109.182 3.35185C109.145 3.45682 109.088 3.55805 109.013 3.65553C108.938 3.75301 108.845 3.83549 108.732 3.90298C108.627 3.96297 108.507 3.99296 108.372 3.99296H105.763C105.208 3.99296 104.931 3.68178 104.931 3.05941V0.866127Z" fill="#006874"/>
<path d="M89.0589 2.29445C89.0589 2.16698 89.0627 2.05076 89.0702 1.94578C89.0776 1.8408 89.1076 1.75082 89.1601 1.67584C89.2201 1.60085 89.3101 1.54461 89.4301 1.50712C89.55 1.46213 89.7188 1.43964 89.9362 1.43964H92.6244C92.7669 1.43964 92.8831 1.46588 92.9731 1.51837C93.0705 1.56336 93.1455 1.62335 93.198 1.69833C93.258 1.77331 93.2955 1.8558 93.3105 1.94578C93.333 2.02826 93.3442 2.10699 93.3442 2.18198V10.5052L97.3934 6.00616C97.5883 5.78871 97.8208 5.67998 98.0907 5.67998H101.544C101.956 5.67998 102.162 5.8412 102.162 6.16363C102.162 6.24611 102.147 6.3136 102.117 6.36609C102.095 6.41857 102.042 6.49356 101.96 6.59104L97.3371 11.4725L103.152 18.9409H103.13C103.227 19.0384 103.295 19.1396 103.332 19.2446C103.377 19.3421 103.4 19.432 103.4 19.5145C103.4 19.687 103.351 19.807 103.253 19.8745C103.163 19.9344 103.025 19.9644 102.837 19.9644H99.0355C98.908 19.9644 98.7881 19.9157 98.6756 19.8182C98.5631 19.7207 98.4394 19.5745 98.3044 19.3796L94.6265 14.1719L93.378 15.4654V19.0984C93.378 19.1584 93.3667 19.2371 93.3442 19.3346C93.3292 19.432 93.2917 19.5295 93.2318 19.627C93.1793 19.717 93.1043 19.7957 93.0068 19.8632C92.9093 19.9307 92.7819 19.9644 92.6244 19.9644H89.8012C89.6663 19.9644 89.55 19.9307 89.4526 19.8632C89.3551 19.7882 89.2764 19.7057 89.2164 19.6158C89.1639 19.5258 89.1226 19.4433 89.0926 19.3683C89.0701 19.2858 89.0589 19.2371 89.0589 19.2221V2.29445Z" fill="#006874"/>
<path d="M82.095 2.29445C82.095 2.05451 82.155 1.85205 82.275 1.68708C82.395 1.52212 82.6012 1.43964 82.8936 1.43964H85.6493C85.7243 1.43964 85.803 1.46213 85.8855 1.50712C85.968 1.54461 86.0429 1.60085 86.1104 1.67584C86.1854 1.75082 86.2454 1.8408 86.2904 1.94578C86.3429 2.05076 86.3691 2.16698 86.3691 2.29445V19.0984C86.3691 19.3833 86.2866 19.6008 86.1217 19.7507C85.9642 19.8932 85.758 19.9644 85.5031 19.9644H82.8936C82.6012 19.9644 82.395 19.8932 82.275 19.7507C82.155 19.6008 82.095 19.3833 82.095 19.0984V2.29445Z" fill="#006874"/>
<path d="M79.3971 19.1322C79.3971 19.2597 79.3746 19.3834 79.3296 19.5034C79.2847 19.6159 79.2097 19.7059 79.1047 19.7733C79.0222 19.8558 78.9247 19.9083 78.8123 19.9308C78.6998 19.9533 78.6023 19.9645 78.5198 19.9645H76.304C76.1466 19.9645 76.0191 19.9458 75.9216 19.9083C75.8241 19.8633 75.7454 19.8033 75.6854 19.7283C75.6254 19.6534 75.5729 19.5634 75.528 19.4584C75.4905 19.3459 75.4492 19.226 75.4042 19.0985L75.258 18.5923C75.0556 18.7948 74.8231 18.9935 74.5607 19.1885C74.3057 19.3834 74.0208 19.5596 73.7058 19.7171C73.3984 19.8671 73.0647 19.987 72.7048 20.077C72.3524 20.1745 71.985 20.2232 71.6025 20.2232C70.9202 20.2232 70.2641 20.137 69.6342 19.9645C69.0118 19.7921 68.427 19.5484 67.8796 19.2335C67.3397 18.911 66.8486 18.5286 66.4061 18.0862C65.9637 17.6363 65.5813 17.1376 65.2589 16.5903C64.944 16.0429 64.7003 15.4543 64.5278 14.8244C64.3553 14.187 64.2691 13.5234 64.2691 12.8336C64.2691 11.7913 64.4603 10.824 64.8427 9.93169C65.2252 9.03188 65.7463 8.25204 66.4061 7.59218C67.066 6.92483 67.8421 6.40369 68.7344 6.02877C69.6267 5.64635 70.5828 5.45514 71.6025 5.45514C72.0674 5.45514 72.4986 5.50763 72.896 5.61261C73.3009 5.71758 73.6684 5.86005 73.9983 6.04001C74.3357 6.21998 74.6394 6.43743 74.9093 6.69238C75.1793 6.93982 75.4155 7.20977 75.6179 7.5022L75.9441 6.47867C76.0191 6.29121 76.0791 6.14124 76.1241 6.02877C76.1766 5.90879 76.2291 5.82256 76.2815 5.77007C76.3415 5.71008 76.4128 5.67259 76.4953 5.6576C76.5777 5.6351 76.694 5.62385 76.8439 5.62385H78.5198C78.6023 5.62385 78.6998 5.6351 78.8123 5.6576C78.9247 5.68009 79.0222 5.73258 79.1047 5.81506C79.2097 5.89754 79.2847 5.99127 79.3296 6.09625C79.3746 6.20123 79.3971 6.3212 79.3971 6.45618V19.1322ZM68.3182 12.8336C68.3182 13.3285 68.3932 13.7934 68.5432 14.2283C68.7007 14.6557 68.9219 15.0268 69.2068 15.3418C69.4917 15.6567 69.8329 15.9079 70.2303 16.0954C70.6352 16.2753 71.0814 16.3653 71.5688 16.3653C72.0712 16.3653 72.5361 16.2753 72.9635 16.0954C73.3984 15.9079 73.7733 15.6567 74.0883 15.3418C74.4107 15.0268 74.6619 14.6557 74.8419 14.2283C75.0218 13.7934 75.1118 13.3285 75.1118 12.8336C75.1118 12.3537 75.0218 11.8963 74.8419 11.4614C74.6619 11.0265 74.4107 10.644 74.0883 10.3141C73.7733 9.98417 73.3984 9.72548 72.9635 9.53802C72.5361 9.34306 72.0712 9.24558 71.5688 9.24558C71.0814 9.24558 70.6352 9.34306 70.2303 9.53802C69.8329 9.72548 69.4917 9.98417 69.2068 10.3141C68.9219 10.644 68.7007 11.0265 68.5432 11.4614C68.3932 11.8963 68.3182 12.3537 68.3182 12.8336Z" fill="#006874"/>
<path d="M52.318 3.75667C52.318 3.60671 52.3667 3.48673 52.4642 3.39675C52.5692 3.30677 52.6967 3.26178 52.8466 3.26178H64.9603C65.0953 3.26178 65.2152 3.30302 65.3202 3.3855C65.4252 3.46799 65.4852 3.59171 65.5002 3.75667V6.55733C65.5002 6.6923 65.4514 6.82352 65.354 6.95099C65.264 7.07097 65.1328 7.13095 64.9603 7.13095H61.0799V19.4358C61.0799 19.5708 61.0311 19.6945 60.9337 19.807C60.8362 19.912 60.7087 19.9645 60.5512 19.9645H57.2444C57.117 19.9645 56.997 19.9157 56.8845 19.8182C56.772 19.7133 56.7158 19.5858 56.7158 19.4358V7.13095H52.8466C52.6967 7.13095 52.5692 7.08221 52.4642 6.98474C52.3667 6.88726 52.318 6.74479 52.318 6.55733V3.75667Z" fill="#006874"/>
<path d="M43.2838 15.5216C43.4863 15.724 43.7037 15.8965 43.9362 16.039C44.1761 16.1739 44.4048 16.2864 44.6223 16.3764C44.8397 16.4589 45.031 16.5189 45.1959 16.5564C45.3609 16.5938 45.4734 16.6126 45.5333 16.6126C45.6758 16.6126 45.8558 16.6088 46.0732 16.6013C46.2982 16.5863 46.5119 16.5526 46.7143 16.5001C46.9168 16.4401 47.0893 16.3464 47.2317 16.2189C47.3817 16.0914 47.4567 15.9115 47.4567 15.679C47.4567 15.4691 47.4154 15.3041 47.333 15.1841C47.2505 15.0567 47.1305 14.9517 46.973 14.8692C46.8156 14.7792 46.6206 14.7005 46.3882 14.633C46.1632 14.5655 45.9083 14.4868 45.6233 14.3968C44.7235 14.1569 43.9812 13.8682 43.3963 13.5307C42.8114 13.1933 42.3465 12.8184 42.0016 12.406C41.6642 11.9861 41.428 11.5362 41.293 11.0563C41.158 10.5764 41.0905 10.0702 41.0905 9.53785C41.0905 8.91548 41.2143 8.34935 41.4617 7.83946C41.7092 7.32957 42.0616 6.89466 42.519 6.53474C42.9764 6.16732 43.5238 5.88612 44.1611 5.69117C44.7985 5.48871 45.5071 5.38748 46.2869 5.38748C46.7593 5.38748 47.2017 5.42872 47.6142 5.5112C48.0266 5.58619 48.4202 5.70991 48.7952 5.88238C49.1701 6.04734 49.5337 6.26479 49.8862 6.53474C50.2461 6.79718 50.6023 7.11211 50.9547 7.47954C51.0822 7.6295 51.1459 7.77197 51.1459 7.90694C51.1534 8.03442 51.0709 8.17314 50.8985 8.3231C50.606 8.56305 50.3248 8.79925 50.0549 9.0317C49.7924 9.26415 49.5187 9.52285 49.2338 9.80779C49.1438 9.88277 49.0538 9.93151 48.9639 9.95401C48.8739 9.969 48.7877 9.96525 48.7052 9.94276C48.6227 9.92026 48.544 9.88277 48.469 9.83028C48.394 9.77779 48.3265 9.71406 48.2665 9.63907C48.0041 9.34664 47.7041 9.15168 47.3667 9.0542C47.0293 8.94922 46.7143 8.89673 46.4219 8.89673C46.0545 8.89673 45.7621 8.96047 45.5446 9.08794C45.3271 9.21541 45.2259 9.41037 45.2409 9.67282C45.2559 9.86778 45.3271 10.0215 45.4546 10.134C45.5896 10.2389 45.7508 10.3252 45.9383 10.3927C46.1332 10.4601 46.3357 10.5164 46.5456 10.5614C46.7631 10.5989 46.9618 10.6439 47.1418 10.6963C47.8166 10.9138 48.4352 11.15 48.9976 11.4049C49.56 11.6599 50.0474 11.9748 50.4598 12.3497C50.8722 12.7172 51.1909 13.1596 51.4158 13.677C51.6483 14.1944 51.7645 14.8242 51.7645 15.5666C51.7645 16.3089 51.6146 16.9725 51.3146 17.5574C51.0222 18.1423 50.6173 18.6334 50.0999 19.0308C49.5825 19.4282 48.9676 19.7319 48.2553 19.9419C47.5504 20.1518 46.7893 20.2568 45.972 20.2568C45.5071 20.2568 45.0347 20.2156 44.5548 20.1331C44.0749 20.0506 43.61 19.9194 43.1601 19.7394C42.7102 19.552 42.2828 19.3158 41.8779 19.0308C41.473 18.7384 41.113 18.386 40.7981 17.9735C40.7156 17.8686 40.6519 17.7598 40.6069 17.6474C40.5694 17.5274 40.5507 17.4112 40.5507 17.2987C40.5582 17.1862 40.5807 17.085 40.6181 16.995C40.6631 16.8975 40.7306 16.815 40.8206 16.7476L42.2715 15.2966C42.4515 15.1467 42.609 15.0942 42.7439 15.1392C42.8864 15.1841 43.0664 15.3116 43.2838 15.5216Z" fill="#006874"/>
<path d="M33.9492 18.5586C33.7467 18.761 33.5143 18.9635 33.2518 19.1659C32.9969 19.3609 32.7157 19.5371 32.4083 19.6946C32.1083 19.852 31.7821 19.9795 31.4297 20.077C31.0848 20.1745 30.7174 20.2232 30.3274 20.2232C29.3077 20.2232 28.3666 20.032 27.5043 19.6496C26.6495 19.2672 25.9109 18.746 25.2885 18.0862C24.6737 17.4188 24.19 16.6352 23.8376 15.7354C23.4927 14.8356 23.3202 13.8683 23.3202 12.8335C23.3202 11.7913 23.4927 10.824 23.8376 9.93165C24.19 9.03185 24.6737 8.25201 25.2885 7.59215C25.9109 6.9248 26.6495 6.40366 27.5043 6.02874C28.3666 5.64632 29.3077 5.45511 30.3274 5.45511C30.7399 5.45511 31.1148 5.4926 31.4522 5.56758C31.7971 5.63507 32.1083 5.7363 32.3858 5.87127C32.6707 6.00624 32.9294 6.16746 33.1618 6.35492C33.4018 6.54238 33.6267 6.74858 33.8367 6.97353V2.28329C33.8367 2.04334 33.9079 1.84088 34.0504 1.67591C34.2004 1.51095 34.4216 1.42847 34.714 1.42847H37.2447C37.3422 1.42847 37.4434 1.45096 37.5484 1.49595C37.6609 1.53344 37.7621 1.58968 37.8521 1.66467C37.9421 1.73965 38.0133 1.82963 38.0658 1.93461C38.1258 2.03959 38.1558 2.15581 38.1558 2.28329V19.0984C38.1558 19.6758 37.8521 19.9645 37.2447 19.9645H35.0402C34.8902 19.9645 34.774 19.9458 34.6915 19.9083C34.609 19.8708 34.5378 19.8183 34.4778 19.7508C34.4253 19.6758 34.3766 19.5858 34.3316 19.4809C34.2866 19.3684 34.2304 19.2409 34.1629 19.0984L33.9492 18.5586ZM27.3693 12.8335C27.3693 13.3284 27.4443 13.7933 27.5943 14.2282C27.7517 14.6556 27.9729 15.0268 28.2579 15.3418C28.5428 15.6567 28.884 15.9079 29.2814 16.0953C29.6863 16.2753 30.1325 16.3653 30.6199 16.3653C31.0998 16.3653 31.5497 16.279 31.9696 16.1066C32.397 15.9341 32.7682 15.6979 33.0831 15.398C33.398 15.0906 33.6492 14.7306 33.8367 14.3182C34.0317 13.9058 34.1404 13.4634 34.1629 12.991V12.8335C34.1629 12.3536 34.0729 11.8962 33.8929 11.4613C33.713 11.0264 33.4618 10.644 33.1393 10.3141C32.8244 9.98414 32.4495 9.72545 32.0146 9.53799C31.5872 9.34303 31.1223 9.24555 30.6199 9.24555C30.1325 9.24555 29.6863 9.34303 29.2814 9.53799C28.884 9.72545 28.5428 9.98414 28.2579 10.3141C27.9729 10.644 27.7517 11.0264 27.5943 11.4613C27.4443 11.8962 27.3693 12.3536 27.3693 12.8335Z" fill="#006874"/>
<path d="M16.7511 6.55738C16.7511 6.31743 16.8186 6.11123 16.9536 5.93876C17.0885 5.7663 17.2985 5.68007 17.5834 5.68007H20.1591C20.2491 5.68007 20.3466 5.70256 20.4516 5.74755C20.5565 5.78505 20.654 5.84503 20.744 5.92752C20.834 6.0025 20.909 6.09248 20.9689 6.19746C21.0364 6.30244 21.0702 6.42241 21.0702 6.55738V19.0985C21.0702 19.3834 20.9914 19.6008 20.834 19.7508C20.6765 19.8933 20.4516 19.9645 20.1591 19.9645H17.5834C17.0285 19.9645 16.7511 19.6758 16.7511 19.0985V6.55738ZM16.7511 0.866096C16.7511 0.551163 16.8186 0.32996 16.9536 0.202487C17.0885 0.0675161 17.2985 3.05176e-05 17.5834 3.05176e-05H20.1929C20.4553 3.05176e-05 20.6653 0.0675161 20.8227 0.202487C20.9877 0.32996 21.0702 0.551163 21.0702 0.866096V3.05938C21.0702 3.14936 21.0477 3.24684 21.0027 3.35182C20.9652 3.45679 20.909 3.55802 20.834 3.6555C20.759 3.75298 20.6653 3.83546 20.5528 3.90295C20.4478 3.96294 20.3278 3.99293 20.1929 3.99293H17.5834C17.0285 3.99293 16.7511 3.68175 16.7511 3.05938V0.866096Z" fill="#006874"/>
<path d="M0 3.75672C0 3.62175 0.0412412 3.50552 0.123724 3.40805C0.213704 3.31057 0.337428 3.26183 0.494894 3.26183H3.82418C3.93666 3.26183 4.05289 3.30682 4.17286 3.3968C4.30033 3.48678 4.36407 3.60675 4.36407 3.75672V9.88666C5.1814 8.83689 5.98372 7.80211 6.77106 6.78233C7.55839 5.76254 8.35697 4.72776 9.1668 3.67799C9.24928 3.55052 9.35426 3.44929 9.48173 3.3743C9.6167 3.29182 9.74792 3.25058 9.87539 3.25058H14.1495C14.3294 3.25058 14.4194 3.30682 14.4194 3.41929C14.4194 3.49428 14.3782 3.58426 14.2957 3.68924L8.99808 10.674L14.8581 19.4921C14.9406 19.6196 14.9818 19.7208 14.9818 19.7958C14.9818 19.9083 14.8993 19.9645 14.7344 19.9645H10.4828C10.3553 19.9645 10.2278 19.927 10.1003 19.852C9.98037 19.7771 9.87914 19.6758 9.79666 19.5484C9.39925 19.0085 9.03557 18.4911 8.70564 17.9962C8.38321 17.5013 8.06828 17.0101 7.76085 16.5227C7.45341 16.0279 7.14223 15.5292 6.82729 15.0268C6.51236 14.5244 6.16743 13.9958 5.79251 13.4409L4.36407 15.0831V19.4696C4.36407 19.7996 4.18411 19.9645 3.82418 19.9645H0.506142C0.168714 19.9645 0 19.7996 0 19.4696V3.75672Z" fill="#006874"/>
</svg>
