<svg width="48" height="49" viewBox="0 0 48 49" fill="none" xmlns="http://www.w3.org/2000/svg" role="status" aria-label="Cargando…">
  <g clip-path="url(#clip0)">
    <circle cx="24" cy="24.5" r="24" fill="#EADDFF"/>
    <path fill="#4F378A"
      d="M20.3091 9.10285C20.4924 8.95322 20.584 8.87841 20.6677 8.81525C22.6389 7.32721 25.3611 7.32721 27.3323 8.81525C27.416 8.87841 27.5076 8.95322 27.6909 9.10285C27.7727 9.16964 27.8136 9.20303 27.8541 9.23482C28.7818 9.96367 29.9191 10.3767 31.0993 10.4133C31.1508 10.4149 31.2037 10.4156 31.3094 10.4169C31.5462 10.4198 31.6646 10.4213 31.7694 10.4266C34.2381 10.5508 36.3234 12.2966 36.8748 14.7008C36.8982 14.8028 36.9202 14.9189 36.9642 15.1511C36.9838 15.2547 36.9937 15.3065 37.0042 15.3568C37.2452 16.5101 37.8504 17.5559 38.7309 18.3408C38.7693 18.3751 38.8094 18.4095 38.8895 18.4783C39.069 18.6324 39.1588 18.7095 39.2357 18.7807C41.0467 20.4592 41.5194 23.1339 40.393 25.3292C40.3451 25.4223 40.2872 25.5254 40.1714 25.7315C40.1196 25.8235 40.0938 25.8695 40.0694 25.9147C39.5111 26.9528 39.3009 28.1421 39.4697 29.3081C39.4771 29.3589 39.4856 29.411 39.5027 29.5151C39.5409 29.7482 39.56 29.8648 39.573 29.9687C39.879 32.416 38.5179 34.7681 36.2407 35.7273C36.1441 35.768 36.0333 35.8098 35.8118 35.8934C35.7129 35.9307 35.6635 35.9494 35.6156 35.9684C34.5192 36.4056 33.592 37.1818 32.9701 38.1833C32.943 38.2269 32.916 38.2723 32.862 38.363C32.741 38.5661 32.6806 38.6677 32.6236 38.7556C31.2814 40.8265 28.7234 41.7555 26.3609 41.0298C26.2606 40.999 26.1489 40.96 25.9253 40.882C25.8256 40.8471 25.7757 40.8297 25.7268 40.8136C24.6052 40.4453 23.3948 40.4453 22.2732 40.8136C22.2243 40.8297 22.1744 40.8471 22.0747 40.882C21.8511 40.96 21.7394 40.999 21.6391 41.0298C19.2767 41.7555 16.7186 40.8265 15.3764 38.7556C15.3194 38.6677 15.259 38.5661 15.138 38.363C15.084 38.2723 15.057 38.2269 15.0299 38.1832C14.408 37.1818 13.4808 36.4056 12.3844 35.9684C12.3365 35.9494 12.2871 35.9307 12.1882 35.8934C11.9667 35.8098 11.8559 35.768 11.7593 35.7273C9.48205 34.7681 8.12097 32.416 8.42698 29.9687C8.43997 29.8648 8.45908 29.7482 8.4973 29.5151C8.51436 29.411 8.52289 29.3589 8.53026 29.3081C8.69906 28.1421 8.48889 26.9528 7.93056 25.9147C7.90621 25.8695 7.88035 25.8235 7.82863 25.7315C7.71278 25.5254 7.65485 25.4223 7.60704 25.3292C6.48057 23.1339 6.95327 20.4592 8.76433 18.7807C8.8412 18.7095 8.93096 18.6324 9.11047 18.4783C9.19061 18.4095 9.23068 18.3751 9.26908 18.3408C10.1496 17.5559 10.7548 16.5101 10.9958 15.3568C11.0063 15.3065 11.0162 15.2547 11.0358 15.1511C11.0798 14.9189 11.1019 14.8028 11.1253 14.7008C11.6766 12.2966 13.7619 10.5508 16.2306 10.4266C16.3354 10.4213 16.4538 10.4198 16.6906 10.4169C16.7963 10.4156 16.8492 10.4149 16.9007 10.4133C18.0809 10.3767 19.2182 9.96367 20.1459 9.23482C20.1864 9.20303 20.2273 9.16964 20.3091 9.10285Z">
      <animateTransform attributeName="transform"
        type="rotate" from="0 24 24.5" to="360 24 24.5"
        dur="3s" repeatCount="indefinite"/>
    </path>
  </g>
  <defs>
    <clipPath id="clip0"><rect width="48" height="48" fill="white" transform="translate(0 0.5)"/></clipPath>
  </defs>
</svg>
